{"title":"Sin Nombre (2009) 720p BRrip_sujaidr","uid":7115159,"size":737688378,"categoryP":"video","categoryS":"hd___movies","magnet":"?xt=urn:btih:6645745c456241e3bdee221f0aa24aee084a08d8&amp;dn=Sin+Nombre+%282009%29+720p+BRrip_sujaidr&amp;tr=udp%3A%2F%2Ftracker.openbittorrent.com%3A80&amp;tr=udp%3A%2F%2Fopen.demonii.com%3A1337&amp;tr=udp%3A%2F%2Ftracker.coppersurfer.tk%3A6969&amp;tr=udp%3A%2F%2Fexodus.desync.com%3A6969","seeders":26,"leechers":3,"uploader":"sujaidr","files":-1,"time":1332194851,"description":"torrent name\n\nSin Nombre (2009) 720p BRrip_sujaidr\n\nvideo details\nID                               : 1\nFormat                           : AVC\nFormat/Info                      : Advanced Video Codec\nFormat profile                   : &lt;a class=&quot;__cf_email__&quot; href=&quot;/cdn-cgi/l/email-protection&quot; data-cfemail=&quot;96defff1fed6daa2b8a7&quot;&gt;[email&amp;#160;protected]&lt;/a&gt;&lt;script cf-hash='f9e31' type=&quot;text/javascript&quot;&gt;\n/* &lt;![CDATA[ */!function(){try{var t=&quot;currentScript&quot;in document?document.currentScript:function(){for(var t=document.getElementsByTagName(&quot;script&quot;),e=t.length;e--;)if(t[e].getAttribute(&quot;cf-hash&quot;))return t[e]}();if(t&amp;&amp;t.previousSibling){var e,r,n,i,c=t.previousSibling,a=c.getAttribute(&quot;data-cfemail&quot;);if(a){for(e=&quot;&quot;,r=parseInt(a.substr(0,2),16),n=2;a.length-n;n+=2)i=parseInt(a.substr(n,2),16)^r,e+=String.fromCharCode(i);e=document.createTextNode(e),c.parentNode.replaceChild(e,c)}}}catch(u){}}();/* ]]&gt; */&lt;/script&gt;\nFormat settings, CABAC           : Yes\nFormat settings, ReFrames        : 4 frames\nMuxing mode                      : Header stripping\nCodec ID                         : V_MPEG4/ISO/AVC\nDuration                         : 1h 35mn\nBit rate                         : 890 Kbps\nWidth                            : 1 280 pixels\nHeight                           : 546 pixels\nDisplay aspect ratio             : 2.35:1\nFrame rate                       : 23.976 fps\nColor space                      : YUV\nChroma subsampling               : 4:2:0\nBit depth                        : 8 bits\nScan type                        : Progressive\nBits/(Pixel*Frame)               : 0.053\nStream size                      : 595 MiB (85%)\n\naudio details\nID                               : 2\nFormat                           : AC-3\nFormat/Info                      : Audio Coding 3\nMode extension                   : CM (complete main)\nMuxing mode                      : Header stripping\nCodec ID                         : A_AC3\nDuration                         : 1h 35mn\nBit rate mode                    : Constant\nBit rate                         : 128 Kbps\nChannel(s)                       : 6 channels\nChannel positions                : Front: L C R, Side: L R, LFE\nSampling rate                    : 48.0 KHz\nBit depth                        : 16 bits\nCompression mode                 : Lossy\nStream size                      : 87.6 MiB (13%)\n\nlanguage                          Spanish\n\nsubtitle                          English muxed\n\nSAMPLE                  :INCLUDED\n\nPLOT:Honduran teenager Sayra reunites with her father, an opportunity for her to potentially realize her dream of a life in the U.S. Moving to Mexico is the first step in a fateful journey of unexpected events.\n\nDirector:Cary Fukunaga\nStars:    Paulina Gaitan, Marco Antonio Aguirre and Leonardo Alonso\nimdb: &lt;a href=&quot; http://www.imdb.com/title/tt1127715/&quot; rel=&quot;nofollow&quot; target=&quot;_NEW&quot;&gt; http://www.imdb.com/title/tt1127715/&lt;/a&gt;\n\nscreenshots\n\n               &lt;a href=&quot; http://img215.imageshack.us/img215/3953/vlcsnap2012032001h43m01.png&quot; rel=&quot;nofollow&quot; target=&quot;_NEW&quot;&gt; http://img215.imageshack.us/img215/3953/vlcsnap2012032001h43m01.png&lt;/a&gt;\n\n               &lt;a href=&quot; http://img441.imageshack.us/img441/1441/vlcsnap2012032001h44m05.png&quot; rel=&quot;nofollow&quot; target=&quot;_NEW&quot;&gt; http://img441.imageshack.us/img441/1441/vlcsnap2012032001h44m05.png&lt;/a&gt;\n\n               &lt;a href=&quot; http://img811.imageshack.us/img811/5756/vlcsnap2012032001h45m24.png&quot; rel=&quot;nofollow&quot; target=&quot;_NEW&quot;&gt; http://img811.imageshack.us/img811/5756/vlcsnap2012032001h45m24.png&lt;/a&gt;\n\n               &lt;a href=&quot; http://img832.imageshack.us/img832/5844/vlcsnap2012032001h45m39.png&quot; rel=&quot;nofollow&quot; target=&quot;_NEW&quot;&gt; http://img832.imageshack.us/img832/5844/vlcsnap2012032001h45m39.png&lt;/a&gt;","torrent":{"xt":"urn:btih:6645745c456241e3bdee221f0aa24aee084a08d8","amp;dn":"Sin+Nombre+%282009%29+720p+BRrip_sujaidr","amp;tr":["udp%3A%2F%2Ftracker.openbittorrent.com%3A80","udp%3A%2F%2Fopen.demonii.com%3A1337","udp%3A%2F%2Ftracker.coppersurfer.tk%3A6969","udp%3A%2F%2Fexodus.desync.com%3A6969"],"infoHash":"6645745c456241e3bdee221f0aa24aee084a08d8","infoHashBuffer":{"type":"Buffer","data":[102,69,116,92,69,98,65,227,189,238,34,31,10,162,74,238,8,74,8,216]},"announce":[],"urlList":[]}}